/* XPM */
static char * wall_xpm[] = {
"35 35 2 1",
" 	c None",
".	c #00FFFF",
"...................................",
"...................................",
"..                               ..",
"..                               ..",
"..                               ..",
"..  ...........................  ..",
"..  ...........................  ..",
"..  ..                       ..  ..",
"..  ..                       ..  ..",
"..  ..                       ..  ..",
"..  ..                       ..  ..",
"..  ..                       ..  ..",
"..  ..                       ..  ..",
"..  ..                       ..  ..",
"..  ..                       ..  ..",
"..  ..                       ..  ..",
"..  ..                       ..  ..",
"..  ..                       ..  ..",
"..  ..                       ..  ..",
"..  ..                       ..  ..",
"..  ..                       ..  ..",
"..  ..                       ..  ..",
"..  ..                       ..  ..",
"..  ..                       ..  ..",
"..  ..                       ..  ..",
"..  ..                       ..  ..",
"..  ..                       ..  ..",
"..  ..                       ..  ..",
"..  ...........................  ..",
"..  ...........................  ..",
"..                               ..",
"..                               ..",
"..                               ..",
"...................................",
"..................................."};
