/* XPM */
static char * exit_xpm[] = {
"35 35 281 2",
"  	c None",
". 	c #74319F",
"+ 	c #7B31A0",
"@ 	c #8330A0",
"# 	c #84319F",
"$ 	c #8032A8",
"% 	c #7636AD",
"& 	c #7439A7",
"* 	c #7A33A7",
"= 	c #8A33A6",
"- 	c #A3369B",
"; 	c #BC53A6",
"> 	c #D381B7",
", 	c #DC9AC3",
"' 	c #CE7FB8",
") 	c #B353AB",
"! 	c #9C36A6",
"~ 	c #8A35A8",
"{ 	c #7D32A0",
"] 	c #72309A",
"^ 	c #7234AD",
"/ 	c #8A39AC",
"( 	c #A034A3",
"_ 	c #B03FA5",
": 	c #C054B0",
"< 	c #D580BD",
"[ 	c #E8B3D3",
"} 	c #ECC6DC",
"| 	c #E3A6CD",
"1 	c #CF76BA",
"2 	c #BB55B2",
"3 	c #B042A9",
"4 	c #A937A1",
"5 	c #97349B",
"6 	c #7B32A1",
"7 	c #7D35A7",
"8 	c #A542A3",
"9 	c #BE63B6",
"0 	c #BE55B2",
"a 	c #B23E9F",
"b 	c #A93195",
"c 	c #A43295",
"d 	c #9F3296",
"e 	c #9D3396",
"f 	c #9C359E",
"g 	c #9D36A3",
"h 	c #A43198",
"i 	c #B13B9C",
"j 	c #C257B1",
"k 	c #CC71B8",
"l 	c #B548A0",
"m 	c #84339F",
"n 	c #6832A7",
"o 	c #7E33A1",
"p 	c #B956A4",
"q 	c #E6B1D1",
"r 	c #D98BC1",
"s 	c #AE39A0",
"t 	c #8B329D",
"u 	c #7831A0",
"v 	c #7032A0",
"w 	c #6C319D",
"x 	c #7732A3",
"y 	c #8A309A",
"z 	c #AB3597",
"A 	c #DA8DC0",
"B 	c #EFC7DC",
"C 	c #C469AC",
"D 	c #8535A5",
"E 	c #78329F",
"F 	c #AC3F9E",
"G 	c #EBBDD7",
"H 	c #EBC1DA",
"I 	c #B24CA4",
"J 	c #82309A",
"K 	c #6631A6",
"L 	c #7F2F93",
"M 	c #A93D9A",
"N 	c #E3AFCF",
"O 	c #EDC2DA",
"P 	c #B250A8",
"Q 	c #7835AD",
"R 	c #91309A",
"S 	c #CC6EB4",
"T 	c #E1A2CA",
"U 	c #B44BA0",
"V 	c #822E90",
"W 	c #7C2E90",
"X 	c #A8419F",
"Y 	c #D682BB",
"Z 	c #C873BB",
"` 	c #9437A7",
" .	c #7333A1",
"..	c #7B319D",
"+.	c #A739A1",
"@.	c #C55EB4",
"#.	c #B33C9B",
"$.	c #842F93",
"%.	c #7E3095",
"&.	c #A538A2",
"*.	c #BF55B0",
"=.	c #A736A5",
"-.	c #8133A5",
";.	c #8735A9",
">.	c #AF3EA6",
",.	c #B33FA0",
"'.	c #903097",
").	c #6932A5",
"!.	c #8432A0",
"~.	c #AE3397",
"{.	c #B448AC",
"].	c #9434A1",
"^.	c #7438A5",
"/.	c #9735A5",
"(.	c #B950B1",
"_.	c #A83096",
":.	c #7A33A5",
"<.	c #74309E",
"[.	c #A23093",
"}.	c #C254B0",
"|.	c #AD3A9E",
"1.	c #78319D",
"2.	c #7434AC",
"3.	c #AE4AAA",
"4.	c #CD71B9",
"5.	c #9F36A2",
"6.	c #752F97",
"7.	c #6A34A5",
"8.	c #9A3094",
"9.	c #D27CBB",
"0.	c #C55EAA",
"a.	c #82339F",
"b.	c #7D35A8",
"c.	c #C874B4",
"d.	c #E2A2CB",
"e.	c #9F379E",
"f.	c #953194",
"g.	c #E0A3CA",
"h.	c #DD9AC3",
"i.	c #8D329E",
"j.	c #8132A2",
"k.	c #D892BF",
"l.	c #EEC9DF",
"m.	c #A03696",
"n.	c #922F92",
"o.	c #E3B1D1",
"p.	c #E5B4D0",
"q.	c #91349D",
"r.	c #8131A0",
"s.	c #D281B6",
"t.	c #EBBCD9",
"u.	c #A23498",
"v.	c #92329A",
"w.	c #DB95C5",
"x.	c #D791C2",
"y.	c #8B35A3",
"z.	c #7B319F",
"A.	c #BC54A5",
"B.	c #D989C2",
"C.	c #A43296",
"D.	c #7031A1",
"E.	c #9436A3",
"F.	c #CC6BB5",
"G.	c #BA5DB1",
"H.	c #7C36AA",
"I.	c #7431A0",
"J.	c #A53B9D",
"K.	c #C459B2",
"L.	c #77319E",
"M.	c #7231A3",
"N.	c #9D3199",
"O.	c #BB52B0",
"P.	c #A238A7",
"Q.	c #7839AA",
"R.	c #8C35A6",
"S.	c #B242A6",
"T.	c #B03C9D",
"U.	c #87319C",
"V.	c #83319B",
"W.	c #AC3196",
"X.	c #B348AD",
"Y.	c #9135A5",
"Z.	c #7C33A6",
"`.	c #A234A2",
" +	c #BB51B0",
".+	c #A8379E",
"++	c #7E2F9B",
"@+	c #7A2F95",
"#+	c #C159B0",
"$+	c #AF38A2",
"%+	c #8334A1",
"&+	c #8D37AB",
"*+	c #BF64B6",
"=+	c #D27ABA",
"-+	c #A83FA1",
";+	c #7D2D90",
">+	c #A03798",
",+	c #D582B9",
"'+	c #D482BF",
")+	c #A0369A",
"!+	c #75319D",
"~+	c #7535AD",
"{+	c #AB48A5",
"]+	c #E8B5D4",
"^+	c #E3AECF",
"/+	c #AB419B",
"(+	c #7E2F93",
"_+	c #6631A8",
":+	c #9E399D",
"<+	c #DA9BC4",
"[+	c #F3D3E4",
"}+	c #C15BA7",
"|+	c #8133A1",
"1+	c #8335A5",
"2+	c #C368AC",
"3+	c #F1CEE1",
"4+	c #DE99C6",
"5+	c #AD3798",
"6+	c #8A3098",
"7+	c #7531A4",
"8+	c #6A32A5",
"9+	c #73319D",
"0+	c #81309F",
"a+	c #9E36A2",
"b+	c #CD70B4",
"c+	c #EEC2DB",
"d+	c #CE7FB6",
"e+	c #8E329E",
"f+	c #6730A9",
"g+	c #8532A0",
"h+	c #B94FA2",
"i+	c #D480BD",
"j+	c #C760B4",
"k+	c #B1379A",
"l+	c #A13196",
"m+	c #9634A2",
"n+	c #95349C",
"o+	c #943093",
"p+	c #963195",
"q+	c #9B3094",
"r+	c #A13094",
"s+	c #AD3195",
"t+	c #BB51AE",
"u+	c #C771BB",
"v+	c #B758AB",
"w+	c #8C34A3",
"x+	c #6B32A6",
"y+	c #7D33A1",
"z+	c #9A3399",
"A+	c #AE39A2",
"B+	c #B346AB",
"C+	c #B94FAF",
"D+	c #C969B4",
"E+	c #DB93C4",
"F+	c #E5B5D3",
"G+	c #E4ADCF",
"H+	c #D685BF",
"I+	c #B549AD",
"J+	c #A836A4",
"K+	c #9738A7",
"L+	c #7B36AD",
"M+	c #6B34A6",
"N+	c #722F9C",
"O+	c #7F329F",
"P+	c #8E35A5",
"Q+	c #9D37A6",
"R+	c #B553AE",
"S+	c #D084BC",
"T+	c #E2AACB",
"U+	c #C662AC",
"V+	c #AD3D9F",
"W+	c #9635A2",
"X+	c #8133A6",
"Y+	c #7433A3",
"Z+	c #7739A6",
"`+	c #7A35AC",
" @	c #8634A3",
".@	c #8D349F",
"+@	c #8B319D",
"@@	c #83329F",
"#@	c #78319E",
"                                                                      ",
"                                                                      ",
"                                                                      ",
"                                                                      ",
"                                                                      ",
"                            . + @ # $ % &                             ",
"                        * = - ; > , ' ) ! ~ { ]                       ",
"                    ^ / ( _ : < [ } | 1 2 3 4 5 6                     ",
"                  7 8 9 0 a b c d e f g h i j k l m n                 ",
"                o p q r s t u v w       x y z A B C D                 ",
"              E F G H I J                 K L M N O P Q               ",
"              R S T U V                       W X Y Z `  .            ",
"            ..+.@.#.$.                          %.&.*.=.-.            ",
"            ;.>.,.'.).                            !.~.{.].            ",
"          ^./.(._.:.                              <.[.}.|.1.          ",
"          2.3.4.5.6.                              7.8.9.0.a.          ",
"          b.c.d.e.                                  f.g.h.i.          ",
"          j.k.l.m.                                  n.o.p.q.          ",
"          r.s.t.u.                                  v.w.x.y.          ",
"          z.A.B.C.D.                                E.F.G.H.          ",
"          I.J.K.b L.                              M.N.O.P.Q.          ",
"            R.S.T.U.                              V.W.X.Y.            ",
"            Z.`. +.+++                          @+C.#+$+%+            ",
"              &+*+=+-+;+                        >+,+'+)+!+            ",
"              ~+{+]+^+/+(+_+                @+:+<+[+}+|+              ",
"                1+2+3+4+5+6+7+        8+9+0+a+b+c+d+e+                ",
"                f+g+h+i+j+k+l+m+n+o+p+q+r+s+t+u+v+w+x+                ",
"                    y+z+A+B+C+D+E+F+G+H+K.I+J+K+L+M+                  ",
"                      N+O+P+Q+R+S+T+h.U+V+W+X+Y+                      ",
"                            Z+`+ @.@+@@@#@                            ",
"                                                                      ",
"                                                                      ",
"                                                                      ",
"                                                                      ",
"                                                                      "};
