/* XPM */
static char * pac_man_top1_xpm[] = {
"35 35 2 1",
" 	c none",
".	c #FFF100",
"                                   ",
"                                   ",
"                                   ",
"                                   ",
"      .....             .....      ",
"      .....             .....      ",
"    .......             ........   ",
"    .......             ........   ",
"    .......             ........   ",
"    ..........        ..........   ",
"    ..........        ..........   ",
" .............        ............ ",
" .............        ............ ",
" .............        ............ ",
" .............        ............ ",
" .............        ............ ",
" ................  ............... ",
" ................  ............... ",
" ................  ............... ",
" ................  ............... ",
" ................  ............... ",
" ................  ............... ",
" ................  ............... ",
" ................  ............... ",
"    ............................   ",
"    ............................   ",
"    ............................   ",
"    ............................   ",
"    ............................   ",
"      .......................      ",
"      .......................      ",
"           .............           ",
"           .............           ",
"           .............           ",
"                                   "};
