/* XPM */
static char * pac_man_right1_xpm[] = {
"35 35 2 1",
" 	c None",
".	c #FFF100",
"                                   ",
"           .............           ",
"           .............           ",
"           .............           ",
"      .......................      ",
"      .......................      ",
"    ...........................    ",
"    ...........................    ",
"    ...........................    ",
"    ...........................    ",
"    ...........................    ",
" .........................         ",
" .........................         ",
" .........................         ",
" ..................                ",
" ..................                ",
" ..................                ",
" ..........                        ",
" ..........                        ",
" ..................                ",
" ..................                ",
" ..................                ",
" .........................         ",
" .........................         ",
"    ...........................    ",
"    ...........................    ",
"    ...........................    ",
"    ...........................    ",
"    ...........................    ",
"      .......................      ",
"      .......................      ",
"      .......................      ",
"           .............           ",
"           .............           ",
"                                   "};
