/* XPM */
static char * pac_man_bot1_xpm[] = {
"35 35 2 1",
" 	c none",
".	c #FFF100",
"                                   ",
"           .............           ",
"           .............           ",
"           .............           ",
"      .......................      ",
"      .......................      ",
"   ............................    ",
"   ............................    ",
"   ............................    ",
"   ............................    ",
"   ............................    ",
" ...............  ................ ",
" ...............  ................ ",
" ...............  ................ ",
" ...............  ................ ",
" ...............  ................ ",
" ...............  ................ ",
" ...............  ................ ",
" ...............  ................ ",
" ............        ............. ",
" ............        ............. ",
" ............        ............. ",
" ............        ............. ",
" ............        ............. ",
"   ..........        ..........    ",
"   ..........        ..........    ",
"   ........             .......    ",
"   ........             .......    ",
"   ........             .......    ",
"      .....             .....      ",
"      .....             .....      ",
"                                   ",
"                                   ",
"                                   ",
"                                   "};
