/* XPM */
static char * pac_man_left1_xpm[] = {
"35 35 2 1",
" 	c None",
".	c #FFF100",
"                                   ",
"           .............           ",
"           .............           ",
"           .............           ",
"      .......................      ",
"      .......................      ",
"    ...........................    ",
"    ...........................    ",
"    ...........................    ",
"    ...........................    ",
"    ...........................    ",
"         ......................... ",
"         ......................... ",
"         ......................... ",
"                .................. ",
"                .................. ",
"                .................. ",
"                        .......... ",
"                        .......... ",
"                .................. ",
"                .................. ",
"                .................. ",
"         ......................... ",
"         ......................... ",
"    ...........................    ",
"    ...........................    ",
"    ...........................    ",
"    ...........................    ",
"    ...........................    ",
"      .......................      ",
"      .......................      ",
"      .......................      ",
"           .............           ",
"           .............           ",
"                                   "};
