/* XPM */
static char * 09_xpm[] = {
"35 35 96 2",
"  	c None",
". 	c #E60012",
"+ 	c #DA0010",
"@ 	c #E10011",
"# 	c #000000",
"$ 	c #A9000A",
"% 	c #E80012",
"& 	c #E70012",
"* 	c #C8000E",
"= 	c #A80000",
"- 	c #E80000",
"; 	c #E6000B",
"> 	c #E60010",
", 	c #E60000",
"' 	c #E70000",
") 	c #C70000",
"! 	c #121212",
"~ 	c #A66363",
"{ 	c #E58B8C",
"] 	c #E55254",
"^ 	c #E6000C",
"/ 	c #E6292F",
"( 	c #E38687",
"_ 	c #E4898A",
": 	c #C57677",
"< 	c #999999",
"[ 	c #DEDEDE",
"} 	c #D2D2D2",
"| 	c #0C0C0C",
"1 	c #A1A2A2",
"2 	c #E0E4E4",
"3 	c #E3898A",
"4 	c #E5494C",
"5 	c #DEDCDC",
"6 	c #DEE1E1",
"7 	c #BFC1C1",
"8 	c #BCBCBC",
"9 	c #DFDFDF",
"0 	c #E6242B",
"a 	c #DFD6D6",
"b 	c #D8D8D8",
"c 	c #A6A6A6",
"d 	c #A4A4A4",
"e 	c #A3A3A3",
"f 	c #C4C4C4",
"g 	c #DFE1E1",
"h 	c #E38889",
"i 	c #E5484B",
"j 	c #DEDADA",
"k 	c #D0D0D0",
"l 	c #CECECE",
"m 	c #E47D7E",
"n 	c #E61821",
"o 	c #DFCFCF",
"p 	c #E0E0E0",
"q 	c #DEE0E0",
"r 	c #DEDDDD",
"s 	c #E56162",
"t 	c #E60011",
"u 	c #E56163",
"v 	c #DFCDCD",
"w 	c #E5474A",
"x 	c #DFD7D7",
"y 	c #DEDBDB",
"z 	c #E56062",
"A 	c #E60414",
"B 	c #E54D4F",
"C 	c #E55355",
"D 	c #E47172",
"E 	c #E2ACAC",
"F 	c #E54E50",
"G 	c #E63034",
"H 	c #E6151F",
"I 	c #E55154",
"J 	c #E38D8D",
"K 	c #DEDFDF",
"L 	c #E39192",
"M 	c #E55053",
"N 	c #E62027",
"O 	c #E55456",
"P 	c #E2A3A4",
"Q 	c #E60005",
"R 	c #E47C7D",
"S 	c #E48284",
"T 	c #E54D50",
"U 	c #DFD0D1",
"V 	c #E39899",
"W 	c #E60007",
"X 	c #E47375",
"Y 	c #DFD0D0",
"Z 	c #E4797A",
"` 	c #E60003",
" .	c #E61720",
"..	c #E60E1A",
"+.	c #E60817",
"@.	c #E60917",
"                                                                      ",
"                            . . . . . . . . .                         ",
"                          + . . . . . . . . @                         ",
"                  # # # # $ % . . . . . . & * # # # #                 ",
"                  # # # # = - ; . . . > , ' ) # # # #                 ",
"                  ! # # # ~ { ] ^ . . / ( _ : # # # # <               ",
"            [ [ } | # # # 1 2 3 , . . 4 5 6 7 # # # # 8 9             ",
"          0 a [ b c d d e f g h , . . i j [ k e d d e l [ m >         ",
"        . n o [ [ p p p p 9 q h , . . i j [ 9 p p p p 9 r s t .       ",
"        . n o [ [ [ [ [ [ [ q h , . . i j [ [ [ [ [ [ [ r u t .       ",
"        . n o [ [ [ [ [ [ [ q h , . . i j [ [ [ [ [ [ [ r u t .       ",
"        . n v 5 5 [ [ [ [ r r ( , . . w x 5 5 [ [ [ [ 5 y z t .       ",
"        . A B C D 5 [ [ q E F G > . . H I I J K [ [ K L M N . .       ",
"        . . . . O 5 [ [ q P , . . . . . . Q R K [ [ q S , . . .       ",
"        . . . . T v o o U V , . . . . . . W X Y o o Y Z ` . . .       ",
"    . . . . . . A  . . .n ... . . . . . . . +.n  . .n @.. . . . . .   ",
"    . . . . . . . . . . . . . . . . . . . . . . . . . . . . . . . .   ",
"    . . . . . . . . . . . . . . . . . . . . . . . . . . . . . . . .   ",
"    . . . . . . . . . . . . . . . . . . . . . . . . . . . . . . . .   ",
"    . . . . . . . . . . . . . . . . . . . . . . . . . . . . . . . .   ",
"    . . . . . . . . . . . . . . . . . . . . . . . . . . . . . . . .   ",
"    . . . . . . . . . . . . . . . . . . . . . . . . . . . . . . . .   ",
"    . . . . . . . . . . . . . . . . . . . . . . . . . . . . . . . .   ",
"    . . . . . . . . . . . . . . . . . . . . . . . . . . . . . . . .   ",
"    . . . . . . . . . . . . . . . . . . . . . . . . . . . . . . . .   ",
"    . . . . . . . . . . . . . . . . . . . . . . . . . . . . . . . .   ",
"    . . . . . . . . . . . . . . . . . . . . . . . . . . . . . . . .   ",
"    . . . . . . . . . . . . . . . . . . . . . . . . . . . . . . . .   ",
"    . . . . . . . . . . . . . . . . . . . . . . . . . . . . . . . .   ",
"    . . .       . . . . . . .           . . . . . . .       . . . .   ",
"    . . .         . . . . . .           . . . . . . .         . . .   ",
"    .                 . . . .           . . . . .               . .   ",
"    .                 . . . .           . . . . .               . .   ",
"                                                                      ",
"                                                                      "};
