/* XPM */
static char * 12_xpm[] = {
"35 35 112 2",
"  	c None",
". 	c #E60012",
"+ 	c #E60011",
"@ 	c #E54E51",
"# 	c #E55759",
"$ 	c #E5575A",
"% 	c #E5494C",
"& 	c #E6000E",
"* 	c #E60010",
"= 	c #E63135",
"- 	c #E5585A",
"; 	c #E60006",
"> 	c #E0C9C9",
", 	c #DEDDDD",
"' 	c #E0BDBE",
") 	c #E60000",
"! 	c #E60003",
"~ 	c #E48485",
"{ 	c #DEDFDF",
"] 	c #DEDCDC",
"^ 	c #E55E60",
"/ 	c #E60112",
"( 	c #DEDEDE",
"_ 	c #E0BEBE",
": 	c #E60007",
"< 	c #E6000F",
"[ 	c #E48384",
"} 	c #DEE0E0",
"| 	c #E55A5C",
"1 	c #E47779",
"2 	c #E39798",
"3 	c #DFD3D3",
"4 	c #DFCDCD",
"5 	c #E39596",
"6 	c #E39899",
"7 	c #E55F61",
"8 	c #E60009",
"9 	c #E6393D",
"0 	c #E39696",
"a 	c #E1B2B2",
"b 	c #E2A5A5",
"c 	c #E1B2B3",
"d 	c #DEE1E1",
"e 	c #E0E0E0",
"f 	c #E0E1E1",
"g 	c #E0E2E2",
"h 	c #E0E4E4",
"i 	c #E49192",
"j 	c #E5595B",
"k 	c #DFDFDF",
"l 	c #E1B1B1",
"m 	c #D6D6D6",
"n 	c #8D8D8D",
"o 	c #8B8B8B",
"p 	c #888C8C",
"q 	c #CA5759",
"r 	c #E7000B",
"s 	c #ADADAD",
"t 	c #898989",
"u 	c #D2D2D2",
"v 	c #131313",
"w 	c #000000",
"x 	c #BA0004",
"y 	c #E70012",
"z 	c #888888",
"A 	c #1E1E1E",
"B 	c #BB000C",
"C 	c #8A8A8A",
"D 	c #0F0000",
"E 	c #5E0003",
"F 	c #E2A4A5",
"G 	c #DFD0D0",
"H 	c #DEDBDB",
"I 	c #D4D4D4",
"J 	c #616161",
"K 	c #5D4E4E",
"L 	c #600000",
"M 	c #5A0003",
"N 	c #C2000D",
"O 	c #E55154",
"P 	c #DFCECE",
"Q 	c #DFD4D4",
"R 	c #9A9A9A",
"S 	c #5A5A5A",
"T 	c #5F2323",
"U 	c #600003",
"V 	c #810006",
"W 	c #E60917",
"X 	c #E0CACA",
"Y 	c #DDDEDE",
"Z 	c #E50012",
"` 	c #E60213",
" .	c #E38586",
"..	c #DDDDDD",
"+.	c #E45E60",
"@.	c #E60005",
"#.	c #DFCBCB",
"$.	c #E0C0C0",
"%.	c #E60002",
"&.	c #E38587",
"*.	c #E55E61",
"=.	c #E6000C",
"-.	c #E29A9B",
";.	c #E2AAAB",
">.	c #E2ABAB",
",.	c #E39192",
"'.	c #E6000A",
").	c #E56466",
"!.	c #E2ACAC",
"~.	c #E2AAAA",
"{.	c #E54649",
"].	c #E60113",
"                                                                      ",
"                                                                      ",
"                            . . . . . . . . .                         ",
"                    . . . . . . . . . . . . . . . . .                 ",
"                  . . . . . . . . . . . . . . . . . .                 ",
"                  . . . . . . . . . . . . . . . . . .                 ",
"              . . . . . . . . . . . . . . . . . . . . . .             ",
"              . . . + @ # # $ % & . . . . . . * = - # # #             ",
"          . . . . . ; > , , , ' ) . . . . . . ! ~ { , , ] ^ . .       ",
"          . . . / ) ) > ( ( { _ ) ) : . . . < ) [ } ( ( ( | ) )       ",
"          . . . ) 1 2 3 ( ( ( 4 5 6 7 8 . . 9 0 a { ( ( ( b 2 2       ",
"          . . . ) c d ( ( ( e f g h i ) . . j { { ( ( k e g g g       ",
"          . . . ) l { ( ( m n o o p q r . . - , ( ( k s t o o o       ",
"          . . . ) l { ( ( u v w w w x y . . - , ( ( e z w w w w       ",
"          . . . ) l { ( ( u A w w w B y . . - , ( ( e C w w w D       ",
"    . . . . . . ) l { ( ( u A w w w B y . . - , ( ( e C w w w E . .   ",
"    . . . . . . ) F G H ( I J K L M N y . . O P Q ( e R S T U V . .   ",
"    . . . . . . . W . X ( ( Y _ ) Z . . . . ` *  .} ( ( ..+.Z Z . .   ",
"    . . . . . . . . @.#.} } } $.) . . . . . . %.&.d } } { *.. . . .   ",
"    . . . . . . . . =.-.;.;.>.,.) . . . . . . '.).!.;.;.~.{.. . . .   ",
"    . . . . . . . . . ) ) ) ) ) ].. . . . . . . @.) ) ) ) =.. . . .   ",
"    . . . . . . . . . . . . . . . . . . . . . . . . . . . . . . . .   ",
"    . . . . . . . . . . . . . . . . . . . . . . . . . . . . . . . .   ",
"    . . . . . . . . . . . . . . . . . . . . . . . . . . . . . . . .   ",
"    . . . . . . . . . . . . . . . . . . . . . . . . . . . . . . . .   ",
"    . . . . . . . . . . . . . . . . . . . . . . . . . . . . . . . .   ",
"    . . . . . . . . . . . . . . . . . . . . . . . . . . . . . . . .   ",
"    . . . . . . . . . . . . . . . . . . . . . . . . . . . . . . . .   ",
"    . . . . . . . . . . . . . . . . . . . . . . . . . . . . . . . .   ",
"    . . . .       . . . . . . .         . . . . . . .       . . . .   ",
"    . .               . . . . .         . . . . .               . .   ",
"    . .               . . . . .         . . . . .               . .   ",
"    . .               . . . . .         . . . . .               . .   ",
"                                                                      ",
"                                                                      "};
