/* XPM */
static char * 11_xpm[] = {
"35 35 108 2",
"  	c None",
". 	c #E60012",
"+ 	c #E60113",
"@ 	c #E60000",
"# 	c #E60011",
"$ 	c #E6000D",
"% 	c #E60004",
"& 	c #E39394",
"* 	c #E1BBBB",
"= 	c #E1BABA",
"- 	c #E1B0B0",
"; 	c #E61720",
"> 	c #E5484B",
", 	c #E1B9B9",
"' 	c #E1BBBC",
") 	c #E47274",
"! 	c #E60005",
"~ 	c #E60515",
"{ 	c #E6111C",
"] 	c #E1B2B2",
"^ 	c #DEE0E0",
"/ 	c #DEDFDF",
"( 	c #DFD3D3",
"_ 	c #E6252B",
": 	c #E60D19",
"< 	c #E60E1A",
"[ 	c #E55A5C",
"} 	c #DEDEDE",
"| 	c #DEE1E1",
"1 	c #E38B8C",
"2 	c #E6000F",
"3 	c #E60314",
"4 	c #E6000B",
"5 	c #E47273",
"6 	c #DFD1D1",
"7 	c #DFCFCF",
"8 	c #DED8D8",
"9 	c #DEDCDC",
"0 	c #DFD0D0",
"a 	c #E60010",
"b 	c #E0BEBF",
"c 	c #DFCFD0",
"d 	c #DFD5D5",
"e 	c #E55759",
"f 	c #E6000A",
"g 	c #E47A7B",
"h 	c #DFCCCC",
"i 	c #E55E60",
"j 	c #DFDFDF",
"k 	c #C7C7C7",
"l 	c #B6B6B6",
"m 	c #BBBBBB",
"n 	c #DDDEDE",
"o 	c #D9D9D9",
"p 	c #B7B7B7",
"q 	c #B5B5B5",
"r 	c #D1D1D1",
"s 	c #E0E0E0",
"t 	c #919191",
"u 	c #000000",
"v 	c #4B4B4B",
"w 	c #DCDDDD",
"x 	c #D0D0D0",
"y 	c #DFDEDE",
"z 	c #E47B7C",
"A 	c #E0E2E2",
"B 	c #939494",
"C 	c #525353",
"D 	c #DCDFDF",
"E 	c #E0C0C0",
"F 	c #DFCECE",
"G 	c #D0D2D2",
"H 	c #161616",
"I 	c #B8B9B9",
"J 	c #DFE0E0",
"K 	c #E55F61",
"L 	c #E54548",
"M 	c #E48384",
"N 	c #E68485",
"O 	c #975555",
"P 	c #542D2D",
"Q 	c #E28283",
"R 	c #E46F71",
"S 	c #E60007",
"T 	c #E47779",
"U 	c #E48284",
"V 	c #D67A7B",
"W 	c #160808",
"X 	c #BC6B6C",
"Y 	c #E58384",
"Z 	c #E63438",
"` 	c #E80004",
" .	c #9A0002",
"..	c #030000",
"+.	c #1B0000",
"@.	c #590001",
"#.	c #E40004",
"$.	c #E60009",
"%.	c #D80004",
"&.	c #260000",
"*.	c #BF0003",
"=.	c #E70004",
"-.	c #DE0011",
";.	c #D90010",
">.	c #DA0010",
",.	c #E40012",
"'.	c #D80010",
").	c #E20011",
"                                                                      ",
"                            . . . . . . . . .                         ",
"                            . . . . . . . . .                         ",
"                  . . . . . . . . . . . . . . . . . .                 ",
"                  . . . . . . . . . . . . . . . . . .                 ",
"                  . . . . . . . . . . . . . . . . . .                 ",
"              . . . . . . . . . . . . . . . . . . . . . .             ",
"            . . . . . . . . . . . . . . . . . . . . . . .             ",
"          . . . . . . . . . . . . . . . . . . . . . . . . . . .       ",
"          . . . + @ @ @ @ @ # . . . . . . . $ @ @ @ @ % . . . .       ",
"          . . . @ & * = = - ; . . . . . . . > , = = ' ) ! . . .       ",
"          . ~ { @ ] ^ / / ( _ : . . . . < { [ } / / | 1 2 3 . .       ",
"          4 5 6 7 8 } } } 9 0 ] @ . . a b c 6 } } } } d 7 e . .       ",
"          f g ^ } } } } } } / b @ . . a h } } } } } } } } i . .       ",
"          f g ^ } } } } } } / b @ . . a h } } } } } } } } i . .       ",
"    . . . f g ^ } j j j j j / b @ . . a h } } j j j j } } i . . . .   ",
"    . . . f g ^ j k l l l m n b @ . . a h } o p l l q r } i . . . .   ",
"    . . . f g ^ s t u u u v w b @ . . a h } x u u u u p y i . . . .   ",
"    . . . f z | A B u u u C D E @ . . a F ^ G H u u u I J K . . . .   ",
"    . . . a L M N O u u u P Q R S . . # T U V W u u u X Y Z . . . .   ",
"    . . . . 2 % `  ...+.+.@.#.$.. . . . S % %.&.+.+.u *.=.a . . . .   ",
"    . . . . . . . -.;.;.;.>.. . . . . . . . ,.;.;.;.'.).. . . . . .   ",
"    . . . . . . . . . . . . . . . . . . . . . . . . . . . . . . . .   ",
"    . . . . . . . . . . . . . . . . . . . . . . . . . . . . . . . .   ",
"    . . . . . . . . . . . . . . . . . . . . . . . . . . . . . . . .   ",
"    . . . . . . . . . . . . . . . . . . . . . . . . . . . . . . . .   ",
"    . . . . . . . . . . . . . . . . . . . . . . . . . . . . . . . .   ",
"    . . . . . . . . . . . . . . . . . . . . . . . . . . . . . . . .   ",
"    . . . .     . . . . . . . .         . . . . . . . .     . . . .   ",
"    . . . .       . . . . . . .         . . . . . . .       . . . .   ",
"    . .               . . . . .         . . . . .               . .   ",
"    . .               . . . . .         . . . . .               . .   ",
"    . .               . . . . .         . . . . .               . .   ",
"                                                                      ",
"                                                                      "};
