/* XPM */
static char * 10_xpm[] = {
"35 35 102 2",
"  	c None",
". 	c #E60012",
"+ 	c #E60006",
"@ 	c #E60010",
"# 	c #E60008",
"$ 	c #E6000A",
"% 	c #E47778",
"& 	c #DFCBCB",
"* 	c #E0CACA",
"= 	c #E0CACB",
"- 	c #E55F61",
"; 	c #E60011",
"> 	c #E1B9BA",
", 	c #E2AAAA",
"' 	c #E60000",
") 	c #E47A7B",
"! 	c #DEE0E0",
"~ 	c #DEDEDE",
"{ 	c #DEDFDF",
"] 	c #E4696B",
"^ 	c #DFCCCC",
"/ 	c #E1BBBC",
"( 	c #E55154",
"_ 	c #E38B8C",
": 	c #E47F80",
"< 	c #E55255",
"[ 	c #E54E51",
"} 	c #E60515",
"| 	c #E6000E",
"1 	c #E54245",
"2 	c #E55355",
"3 	c #DFCECE",
"4 	c #E0C0C0",
"5 	c #E54D4F",
"6 	c #E55456",
"7 	c #E63035",
"8 	c #DFDDDD",
"9 	c #DFDFDF",
"0 	c #DEDDDD",
"a 	c #DEDCDC",
"b 	c #DFD1D1",
"c 	c #E61E25",
"d 	c #E1B3B4",
"e 	c #DFDEDE",
"f 	c #E38889",
"g 	c #BEBEBE",
"h 	c #BDBDBD",
"i 	c #D2D2D2",
"j 	c #DFD2D2",
"k 	c #E61E26",
"l 	c #E70000",
"m 	c #CE9A9A",
"n 	c #BDBFBF",
"o 	c #C2C2C2",
"p 	c #E38A8B",
"q 	c #000000",
"r 	c #B0B0B0",
"s 	c #E80113",
"t 	c #920000",
"u 	c #535353",
"v 	c #DDDDDD",
"w 	c #B1B1B1",
"x 	c #E80012",
"y 	c #940007",
"z 	c #585858",
"A 	c #D60010",
"B 	c #1E0000",
"C 	c #DC0011",
"D 	c #280001",
"E 	c #010000",
"F 	c #010101",
"G 	c #E40012",
"H 	c #D50008",
"I 	c #D27071",
"J 	c #CDCECE",
"K 	c #CCCCCC",
"L 	c #D7D7D7",
"M 	c #E38687",
"N 	c #E56163",
"O 	c #E55C5E",
"P 	c #E60716",
"Q 	c #DB0011",
"R 	c #D4000E",
"S 	c #CEBCBC",
"T 	c #CDCDCD",
"U 	c #CFCFCF",
"V 	c #E0C1C2",
"W 	c #E55D5F",
"X 	c #E56264",
"Y 	c #E63A3E",
"Z 	c #E6000F",
"` 	c #E1BBBB",
" .	c #E6000B",
"..	c #E47273",
"+.	c #DFCFD0",
"@.	c #DFD0D0",
"#.	c #E0BFBF",
"$.	c #E1AFAF",
"%.	c #E6111C",
"&.	c #E60414",
"*.	c #E60F1A",
"=.	c #E60C19",
"                                                                      ",
"                                                                      ",
"                            . . . . . . . . .                         ",
"                            . . . . . . . . .                         ",
"                  . . . . . . . . . . . . . . . . . .                 ",
"                  . . . . . . . . . . . . . . . . . .                 ",
"              . . . . . . . . . . . . . . . . . . . . . .             ",
"              + + + + @ . . . . . . . . # + + + $ . . . .             ",
"          $ % & * * = - ; . . . . . . @ > * * = , ' . . . . . .       ",
"          $ ) ! ~ ~ { ] ; . . . . . . @ ^ ~ ~ { / ' . . . . . .       ",
"          ( _ { ~ ~ { : < [ } . . | 1 2 3 ~ ~ { 4 5 6 7 @ . . .       ",
"          8 8 9 9 ~ ~ 0 a b c . . ' d e e 9 9 ~ 0 a ~ f ' . . .       ",
"          g g g h i ~ ~ ~ j k . . l m n g g o ~ ~ ~ ! p ' . . .       ",
"          q q q q r 9 ~ ~ j k . . s t q q q u v ~ ~ ! p ' . . .       ",
"          q q q q w 9 ~ ~ j k . . x y q q q z v ~ ~ ! p ' . . .       ",
"    . . A B q q q w 9 ~ ~ j k . . x y q q q z v ~ ~ ! p ' . . . .     ",
"    . . C D E F q w 9 ~ ~ j k . . x y q F F z v ~ ~ ! p ' . . . . .   ",
"    . . G H I J K L { M N O P . . . Q R S T U ~ V W X Y Z . . . . .   ",
"    . . . $ ) ! ~ ~ { ] ; . . . . . . @ ^ ~ ~ { ` ' . . . . . . . .   ",
"    . . .  ...b +.+.@.X ; . . . . . . @ #.@.+.@.$.' . . . . . . . .   ",
"    . . . . } %.%.%.%.&.. . . . . . . . *.%.%.%.=.. . . . . . . . .   ",
"    . . . . . . . . . . . . . . . . . . . . . . . . . . . . . . . .   ",
"    . . . . . . . . . . . . . . . . . . . . . . . . . . . . . . . .   ",
"    . . . . . . . . . . . . . . . . . . . . . . . . . . . . . . . .   ",
"    . . . . . . . . . . . . . . . . . . . . . . . . . . . . . . . .   ",
"    . . . . . . . . . . . . . . . . . . . . . . . . . . . . . . . .   ",
"    . . . . . . . . . . . . . . . . . . . . . . . . . . . . . . . .   ",
"    . . . . . . . . . . . . . . . . . . . . . . . . . . . . . . . .   ",
"    . . . . . . . . . . . . . . . . . . . . . . . . . . . . . . . .   ",
"    . . . .       . . . . . . .         . . . . . . .       . . . .   ",
"    . . . .       . . . . . . .         . . . . . . .       . . . .   ",
"    . .               . . . . .         . . . . .               . .   ",
"    . .               . . . . .         . . . . .               . .   ",
"                                                                      ",
"                                                                      "};
