/* XPM */
static char * 17_xpm[] = {
"35 35 2 1",
" 	c None",
".	c #FFF100",
"                                   ",
"                                   ",
"                                   ",
"                                   ",
"                                   ",
"                                   ",
"                                   ",
"                                   ",
"                                   ",
"                                   ",
"                                   ",
"                                   ",
"                                   ",
"                                   ",
"                                   ",
"                                   ",
"                                   ",
"                                   ",
"                                   ",
"         .................         ",
"         .................         ",
"         .................         ",
"...................................",
"...................................",
"...................................",
"...................................",
"...................................",
" ................................. ",
" ................................. ",
"      ..........   ..........      ",
"      ..........   ..........      ",
"      ..........   ..........      ",
"                                   ",
"                                   ",
"                                   "};
