/* XPM */
static char * 20_xpm[] = {
"35 35 2 1",
" 	c None",
".	c #FFF100",
"                                   ",
"                                   ",
"                                   ",
"                                   ",
"                                   ",
"                                   ",
"                                   ",
"                                   ",
"                                   ",
"                                   ",
"                                   ",
"                                   ",
"                                   ",
"                                   ",
"                ...                ",
"                ...                ",
"                ...                ",
"              .......              ",
"              .......              ",
"         .................         ",
"         .................         ",
"         .................         ",
"      .......................      ",
"      .......................      ",
" ................................. ",
" ................................. ",
" ................................. ",
" ...............   ............... ",
" ...............   ............... ",
"    ..........       ..........    ",
"    ..........       ..........    ",
"    ..........       ..........    ",
"                                   ",
"                                   ",
"                                   "};
