/* XPM */
static char * 23_xpm[] = {
"35 35 2 1",
" 	c None",
".	c #FFF100",
"                                   ",
"                                   ",
"                                   ",
"                                   ",
"                                   ",
"                                   ",
"                                   ",
"                                   ",
"                                   ",
"                                   ",
"                                   ",
"                                   ",
"                                   ",
"                                   ",
"                                   ",
"                                   ",
"                                   ",
"                ...                ",
"                ...                ",
"                ...                ",
"                ...                ",
"                ...                ",
"                ...                ",
"                ...                ",
"                ...                ",
"                ...                ",
"                ...                ",
"                ...                ",
"                ...                ",
"                ...                ",
"                ...                ",
"                ...                ",
"                                   ",
"                                   ",
"                                   "};
